<?xml version="1.0" standalone="no"?>
<svg xmlns="http://www.w3.org/2000/svg" viewBox="0 0 173.16 36" width="173.16" height="36"><g fill="#000000" color="#000000" transform="translate(0 3.9999999999999982) scale(0.2800001)"><svg width="100.0" height="100.0" x="0.0" y="0.0" viewBox="0 0 100 100"><path d="M91.886,40.31c-0.092-0.045-0.192-0.062-0.288-0.094c-0.031-0.014-0.063-0.019-0.096-0.031  c-0.094-0.027-0.186-0.062-0.281-0.077c-0.581-0.155-1.204-0.124-1.765,0.159c-1.409,0.712-2.649,1.072-3.688,1.072  c-2.056,0-3.498-1.428-5.681-3.758c-2.524-2.695-5.665-6.048-11.08-6.048c-3.594,0-7.769,1.548-12.68,4.681  c-3.606-9.377-8.222-13.621-14.727-13.621c-1.834,0-3.556,0.319-5.22,0.628c-1.403,0.26-2.729,0.506-3.903,0.506c0,0,0,0-0.002,0  c-1.578,0-3.415-0.302-5.234-3.899c-0.455-0.9-1.399-1.435-2.416-1.362c-0.614,0.047-1.157,0.335-1.572,0.756  c-0.035,0.034-0.066,0.069-0.101,0.105c-0.106,0.122-0.199,0.251-0.281,0.395c-0.024,0.04-0.061,0.07-0.081,0.112  c0,0-4.604,9.186-4.639,9.293L6.279,65.512c-0.309,0.944,0.032,1.979,0.841,2.557c0.305,0.218,0.708,0.524,1.148,0.859  c1.385,1.054,2.427,1.832,3.22,2.249c5.505,2.896,10.581,3.183,15.06,3.435c4.534,0.255,8.185,0.461,11.312,3.241l-0.099,1.175  c-0.086,1.028,0.531,1.985,1.503,2.331l3.522,1.153c0.989,0.301,2.053-0.109,2.592-0.99l0.612-0.999  c4.264-0.344,8.083,2.06,12.544,4.894c5.261,3.34,11.223,7.126,19.498,7.236c0.011,0,0.021,0.001,0.03,0.001  c0.979,0,1.849-0.627,2.158-1.558l12.652-38.07c0.073-0.219,0.281-10.638,0.281-10.638C93.17,41.507,92.675,40.698,91.886,40.31z   M57.172,41.641c4.871-3.396,8.851-5.115,11.836-5.115c3.252,0,5.19,2.07,7.437,4.469c2.345,2.501,4.999,5.337,9.324,5.337  c0.311,0,0.624-0.014,0.939-0.044L76.443,77.512c-1.037,0.435-1.97,0.653-2.779,0.653c0,0,0,0-0.001,0  c-2.053,0-3.492-1.428-5.671-3.756c-2.522-2.696-5.662-6.051-11.078-6.051c-2.775,0-5.893,0.912-9.431,2.771L57.172,41.641z   M32.479,28.72C32.479,28.72,32.479,28.72,32.479,28.72c1.633-0.001,3.249-0.3,4.812-0.59c1.51-0.28,2.936-0.545,4.311-0.545  c2.153,0,6.585,0.001,10.826,12.498l-9.685,29.479c-3.374-6.965-7.596-10.144-13.237-10.144c-1.836,0-3.559,0.32-5.225,0.63  c-1.405,0.262-2.731,0.508-3.905,0.508c-1.437,0-3.087-0.251-4.745-3.02l10.257-31.242C27.711,27.921,29.894,28.72,32.479,28.72z"></path></svg></g><path fill="#000000" fill-rule="nonzero" d="M4.42 7.99L4.42 7.99Q5.11 8.64 6.18 8.64Q7.25 8.64 7.93 7.74Q8.62 6.84 8.62 5.35L8.62 5.35Q8.62 2.02 5.45 2.02L5.45 2.02Q4.37 2.02 3.19 2.50L3.19 2.50Q3.02 4.58 3.02 8.42Q3.02 12.26 3.24 14.98L3.24 14.98L4.13 15.05Q4.18 15.58 4.18 15.78Q4.18 15.98 4.10 16.39L4.10 16.39Q3.41 16.37 2.06 16.37Q0.72 16.37 0.22 16.39L0.22 16.39Q0.14 16.03 0.14 15.71Q0.14 15.38 0.19 15.05L0.19 15.05L1.03 14.98Q1.22 12.34 1.22 8.35Q1.22 4.37 0.98 2.47L0.98 2.47L0.07 2.40Q0 2.11 0 1.66Q0 1.20 0.02 1.06L0.02 1.06Q1.63 1.01 2.86 0.83Q4.08 0.65 5.47 0.65L5.47 0.65Q10.70 0.65 10.70 5.35L10.70 5.35Q10.70 7.25 9.77 8.47Q8.83 9.70 7.15 10.01L7.15 10.01Q9.53 13.78 10.44 14.86L10.44 14.86L11.57 14.93Q11.62 15.31 11.62 15.64Q11.62 15.96 11.54 16.32L11.54 16.32Q9.36 16.39 8.50 16.44L8.50 16.44L8.40 16.18Q7.99 15.17 7.40 14.08Q6.82 12.98 4.94 10.06L4.94 10.06Q4.44 10.03 3.91 9.79L3.91 9.79Q3.91 9.31 4.07 8.75Q4.22 8.18 4.42 7.99ZM17.21 11.04L17.21 11.04Q16.03 11.04 15.02 10.92L15.02 10.92Q15.07 15.00 17.74 15.00L17.74 15.00Q19.08 15.00 20.71 13.51L20.71 13.51Q21.41 14.23 21.60 15.41L21.60 15.41Q19.63 16.73 17.42 16.73Q15.22 16.73 14.14 15.20Q13.06 13.68 13.06 10.73Q13.06 7.78 14.27 6.34Q15.48 4.90 17.71 4.90L17.71 4.90Q19.37 4.90 20.45 5.90Q21.53 6.91 21.54 8.38Q21.55 9.84 21.29 10.46L21.29 10.46Q19.49 11.04 17.21 11.04ZM17.54 6.24L17.54 6.24Q15.31 6.24 15.05 9.53L15.05 9.53Q16.13 9.65 17.42 9.65Q18.72 9.65 19.44 9.41L19.44 9.41Q19.54 8.81 19.54 8.52L19.54 8.52Q19.54 7.46 19.00 6.85Q18.46 6.24 17.54 6.24ZM32.11 8.09L32.11 8.09L32.02 11.54Q32.02 13.18 32.21 14.74L32.21 14.74L33.10 14.81Q33.14 15.19 33.14 15.52Q33.14 15.84 33.07 16.20L33.07 16.20Q32.38 16.22 30.36 16.44L30.36 16.44Q30.19 15.98 30.10 15.31L30.10 15.31Q28.22 16.73 26.87 16.73Q25.51 16.73 24.76 15.85Q24.00 14.98 24.00 13.36Q24.00 11.74 25.02 10.80Q26.04 9.86 27.59 9.86Q29.14 9.86 30.24 10.44L30.24 10.44Q30.26 10.18 30.26 9.58L30.26 9.58Q30.26 7.80 29.77 7.02Q29.28 6.24 28.27 6.24Q27.26 6.24 26.81 6.62L26.81 6.62Q27.00 7.01 27.00 7.58Q27.00 8.16 26.63 8.58Q26.26 9.00 25.58 9.00L25.58 9.00Q24.46 9.00 24.46 7.67Q24.46 6.34 25.46 5.62Q26.47 4.90 28.30 4.90Q30.12 4.90 31.12 5.75Q32.11 6.60 32.11 8.09ZM30.14 11.95L30.14 11.95Q29.16 11.11 28.03 11.11L28.03 11.11Q25.87 11.11 25.87 13.03L25.87 13.03Q25.87 15.00 27.58 15.00L27.58 15.00Q28.20 15.00 28.91 14.68Q29.62 14.35 30.02 13.87L30.02 13.87Q30.14 12.43 30.14 11.95ZM42.24 5.47L42.24 5.47L42.26 3.96Q42.26 2.52 42.17 1.63L42.17 1.63L41.21 1.56Q41.14 1.27 41.14 0.82Q41.14 0.36 41.16 0.22L41.16 0.22Q43.30 0.12 44.28 0L44.28 0L44.38 0.12Q44.02 3.26 44.02 8.22Q44.02 13.18 44.23 14.76L44.23 14.76L45.12 14.81Q45.17 15.34 45.17 15.59Q45.17 15.84 45.10 16.20L45.10 16.20Q44.16 16.25 42.48 16.44L42.48 16.44Q42.29 16.06 42.19 15.22L42.19 15.22Q40.54 16.73 38.84 16.73Q37.15 16.73 36.25 15.19Q35.35 13.66 35.35 10.84Q35.35 8.02 36.49 6.46Q37.63 4.90 39.77 4.90L39.77 4.90Q40.97 4.90 42.24 5.47ZM39.79 6.31L39.79 6.31Q37.39 6.31 37.39 11.09L37.39 11.09Q37.39 12.89 37.93 13.88Q38.47 14.88 39.43 14.88L39.43 14.88Q40.08 14.88 40.86 14.47Q41.64 14.06 42.22 13.44L42.22 13.44Q42.26 10.46 42.26 7.01L42.26 7.01Q40.73 6.31 39.79 6.31ZM53.47 6.58L52.46 6.50Q52.42 6.26 52.42 5.87Q52.42 5.47 52.49 5.16L52.49 5.16Q53.21 5.18 54.49 5.18Q55.78 5.18 56.47 5.16L56.47 5.16Q56.54 5.47 56.54 5.83Q56.54 6.19 56.50 6.50L56.50 6.50L55.78 6.58Q55.13 8.33 54.11 11.40Q53.09 14.47 52.57 15.91Q52.06 17.35 51.61 18.24Q51.17 19.13 50.64 19.92L50.64 19.92Q49.63 21.41 48.25 21.41Q46.87 21.41 45.72 20.64L45.72 20.64Q45.82 19.25 46.51 18.65L46.51 18.65Q47.23 19.63 48.26 19.63L48.26 19.63Q49.37 19.63 50.71 16.51L50.71 16.51Q49.49 12.22 46.85 6.58L46.85 6.58L46.06 6.50Q46.01 6.22 46.01 5.84Q46.01 5.47 46.08 5.16L46.08 5.16Q46.78 5.18 48.16 5.18Q49.54 5.18 50.26 5.16L50.26 5.16Q50.33 5.47 50.33 5.84Q50.33 6.22 50.28 6.50L50.28 6.50L49.30 6.58Q49.75 9.24 51.65 13.70L51.65 13.70L51.74 13.70Q52.94 9.82 53.47 6.58L53.47 6.58ZM68.95 2.59L68.95 2.59Q68.78 4.46 68.78 8.60Q68.78 12.74 68.98 14.98L68.98 14.98L70.37 15.12Q70.42 15.50 70.42 15.73Q70.42 15.96 70.34 16.39L70.34 16.39Q69.48 16.37 67.86 16.37Q66.24 16.37 65.50 16.39L65.50 16.39Q65.42 16.03 65.42 15.79Q65.42 15.55 65.47 15.12L65.47 15.12L66.79 14.98Q66.98 12.41 66.98 8.46Q66.98 4.51 66.77 2.59L66.77 2.59Q65.83 2.62 64.18 2.76L64.18 2.76L64.10 4.54Q63.72 4.61 63.38 4.61Q63.05 4.61 62.76 4.58L62.76 4.58Q62.69 2.62 62.54 0.94L62.54 0.94L62.66 0.82Q64.44 1.03 68.35 1.03Q72.26 1.03 73.25 0.82L73.25 0.82L73.37 0.94Q73.20 2.78 73.15 4.34L73.15 4.34Q72.86 4.37 72.54 4.37Q72.22 4.37 71.81 4.30L71.81 4.30L71.74 2.69Q70.73 2.64 68.95 2.59ZM74.81 10.68Q74.81 4.90 79.32 4.90Q83.83 4.90 83.83 10.68L83.83 10.68Q83.83 13.34 82.99 14.90L82.99 14.90Q82.03 16.73 79.32 16.73Q76.61 16.73 75.65 14.90L75.65 14.90Q74.81 13.34 74.81 10.68L74.81 10.68ZM76.78 10.62Q76.78 15.00 79.32 15.00Q81.86 15.00 81.86 10.62Q81.86 6.24 79.32 6.24Q76.78 6.24 76.78 10.62ZM96.41 7.99L96.41 7.99Q97.10 8.64 98.17 8.64Q99.24 8.64 99.92 7.74Q100.61 6.84 100.61 5.35L100.61 5.35Q100.61 2.02 97.44 2.02L97.44 2.02Q96.36 2.02 95.18 2.50L95.18 2.50Q95.02 4.58 95.02 8.42Q95.02 12.26 95.23 14.98L95.23 14.98L96.12 15.05Q96.17 15.58 96.17 15.78Q96.17 15.98 96.10 16.39L96.10 16.39Q95.40 16.37 94.06 16.37Q92.71 16.37 92.21 16.39L92.21 16.39Q92.14 16.03 92.14 15.71Q92.14 15.38 92.18 15.05L92.18 15.05L93.02 14.98Q93.22 12.34 93.22 8.35Q93.22 4.37 92.98 2.47L92.98 2.47L92.06 2.40Q91.99 2.11 91.99 1.66Q91.99 1.20 92.02 1.06L92.02 1.06Q93.62 1.01 94.85 0.83Q96.07 0.65 97.46 0.65L97.46 0.65Q102.70 0.65 102.70 5.35L102.70 5.35Q102.70 7.25 101.76 8.47Q100.82 9.70 99.14 10.01L99.14 10.01Q101.52 13.78 102.43 14.86L102.43 14.86L103.56 14.93Q103.61 15.31 103.61 15.64Q103.61 15.96 103.54 16.32L103.54 16.32Q101.35 16.39 100.49 16.44L100.49 16.44L100.39 16.18Q99.98 15.17 99.40 14.08Q98.81 12.98 96.94 10.06L96.94 10.06Q96.43 10.03 95.90 9.79L95.90 9.79Q95.90 9.31 96.06 8.75Q96.22 8.18 96.41 7.99ZM109.20 11.04L109.20 11.04Q108.02 11.04 107.02 10.92L107.02 10.92Q107.06 15.00 109.73 15.00L109.73 15.00Q111.07 15.00 112.70 13.51L112.70 13.51Q113.40 14.23 113.59 15.41L113.59 15.41Q111.62 16.73 109.42 16.73Q107.21 16.73 106.13 15.20Q105.05 13.68 105.05 10.73Q105.05 7.78 106.26 6.34Q107.47 4.90 109.70 4.90L109.70 4.90Q111.36 4.90 112.44 5.90Q113.52 6.91 113.53 8.38Q113.54 9.84 113.28 10.46L113.28 10.46Q111.48 11.04 109.20 11.04ZM109.54 6.24L109.54 6.24Q107.30 6.24 107.04 9.53L107.04 9.53Q108.12 9.65 109.42 9.65Q110.71 9.65 111.43 9.41L111.43 9.41Q111.53 8.81 111.53 8.52L111.53 8.52Q111.53 7.46 110.99 6.85Q110.45 6.24 109.54 6.24ZM124.10 8.09L124.10 8.09L124.01 11.54Q124.01 13.18 124.20 14.74L124.20 14.74L125.09 14.81Q125.14 15.19 125.14 15.52Q125.14 15.84 125.06 16.20L125.06 16.20Q124.37 16.22 122.35 16.44L122.35 16.44Q122.18 15.98 122.09 15.31L122.09 15.31Q120.22 16.73 118.86 16.73Q117.50 16.73 116.75 15.85Q115.99 14.98 115.99 13.36Q115.99 11.74 117.01 10.80Q118.03 9.86 119.58 9.86Q121.13 9.86 122.23 10.44L122.23 10.44Q122.26 10.18 122.26 9.58L122.26 9.58Q122.26 7.80 121.76 7.02Q121.27 6.24 120.26 6.24Q119.26 6.24 118.80 6.62L118.80 6.62Q118.99 7.01 118.99 7.58Q118.99 8.16 118.62 8.58Q118.25 9.00 117.58 9.00L117.58 9.00Q116.45 9.00 116.45 7.67Q116.45 6.34 117.46 5.62Q118.46 4.90 120.29 4.90Q122.11 4.90 123.11 5.75Q124.10 6.60 124.10 8.09ZM122.14 11.95L122.14 11.95Q121.15 11.11 120.02 11.11L120.02 11.11Q117.86 11.11 117.86 13.03L117.86 13.03Q117.86 15.00 119.57 15.00L119.57 15.00Q120.19 15.00 120.90 14.68Q121.61 14.35 122.02 13.87L122.02 13.87Q122.14 12.43 122.14 11.95ZM134.23 5.47L134.23 5.47L134.26 3.96Q134.26 2.52 134.16 1.63L134.16 1.63L133.20 1.56Q133.13 1.27 133.13 0.82Q133.13 0.36 133.15 0.22L133.15 0.22Q135.29 0.12 136.27 0L136.27 0L136.37 0.12Q136.01 3.26 136.01 8.22Q136.01 13.18 136.22 14.76L136.22 14.76L137.11 14.81Q137.16 15.34 137.16 15.59Q137.16 15.84 137.09 16.20L137.09 16.20Q136.15 16.25 134.47 16.44L134.47 16.44Q134.28 16.06 134.18 15.22L134.18 15.22Q132.53 16.73 130.84 16.73Q129.14 16.73 128.24 15.19Q127.34 13.66 127.34 10.84Q127.34 8.02 128.48 6.46Q129.62 4.90 131.76 4.90L131.76 4.90Q132.96 4.90 134.23 5.47ZM131.78 6.31L131.78 6.31Q129.38 6.31 129.38 11.09L129.38 11.09Q129.38 12.89 129.92 13.88Q130.46 14.88 131.42 14.88L131.42 14.88Q132.07 14.88 132.85 14.47Q133.63 14.06 134.21 13.44L134.21 13.44Q134.26 10.46 134.26 7.01L134.26 7.01Q132.72 6.31 131.78 6.31Z" transform="translate(36, 9.816)"></path></svg>